#!OML:ASF F:\VICON\USERDATA\INSTALL\rory3\rory3.ASF
:FULLY-SPECIFIED
:DEGREES
409
root -2.43753 17.6704 -0.69936 25.6102 64.0779 10.9351
lowerback 12.4939 1.71259 -0.714854
upperback 7.60921 2.59787 6.94402
thorax 0.6571 1.28327 7.42748
lowerneck -11.2152 -9.17152 -9.97731
upperneck 31.6109 -11.4529 4.76082
head 13.4108 -5.3191 1.88655
rclavicle 3.97569e-014 1.90833e-014
rhumerus 15.9266 -18.3998 -87.4462
rradius 36.947
rwrist -7.61432
rhand -36.1741 -25.8302
rfingers 7.12502
rthumb -9.27784 -55.6061
lclavicle 3.97569e-014 1.90833e-014
lhumerus -4.49572 -50.7073 91.1129
lradius 69.6539
lwrist 60.4883
lhand -17.8067 43.5177
lfingers 7.12502
lthumb 8.45686 73.3284
rfemur -32.1839 -9.72154 11.6576
rtibia 38.9903
rfoot -20.5491 -7.35124
rtoes 1.1087
lfemur -33.5031 -4.20687 -21.5726
ltibia 27.8891
lfoot -7.40634 -1.5151
ltoes -3.86838
410
root -2.4699 17.6718 -0.669544 25.8606 63.8542 11.3569
lowerback 12.4755 1.80699 -0.741781
upperback 7.74051 2.72557 7.14107
thorax 0.780926 1.3421 7.6465
lowerneck -11.2755 -9.29402 -10.3088
upperneck 31.6926 -11.4637 4.53233
head 13.4726 -5.38395 1.84569
rclavicle -6.67916e-014 -6.67916e-014
rhumerus 16.0792 -15.9702 -87.7929
rradius 36.7231
rwrist -9.00139
rhand -35.7256 -24.2823
rfingers 7.12502
rthumb -8.84505 -54.077
lclavicle -6.67916e-014 -6.67916e-014
lhumerus -6.30005 -48.965 91.9151
lradius 69.638
lwrist 62.507
lhand -18.9604 42.1604
lfingers 7.12502
lthumb 7.34342 72.013
rfemur -32.3156 -9.89049 11.5828
rtibia 39.247
rfoot -20.3836 -7.15173
rtoes 0.469153
lfemur -33.2149 -3.62426 -21.9295
ltibia 27.5102
lfoot -7.23436 -1.63566
ltoes -4.85567
411
root -2.49947 17.6717 -0.646512 26.5167 63.7974 12.0464
lowerback 12.3164 1.99191 -0.470606
upperback 7.76185 2.98944 7.13789
thorax 0.863413 1.48156 7.45616
lowerneck -11.2089 -9.56297 -10.2963
upperneck 31.7706 -11.8248 4.46068
head 13.521 -5.54086 1.75735
rclavicle -2.22639e-014 4.45278e-014
rhumerus 16.0591 -14.4911 -88.3908
rradius 36.7412
rwrist -9.68331
rhand -34.5117 -22.9005
rfingers 7.12502
rthumb -7.67353 -52.7413
lclavicle -2.22639e-014 4.45278e-014
lhumerus -8.02645 -47.8279 92.4539
lradius 69.5178
lwrist 64.4071
lhand -20.3419 40.9003
lfingers 7.12502
lthumb 6.00969 70.7951
rfemur -32.6062 -10.2241 11.479
rtibia 39.5058
rfoot -20.297 -7.03761
rtoes -0.433252
lfemur -33.1334 -3.42747 -22.2626
ltibia 27.1208
lfoot -6.97532 -1.60352
ltoes -5.96884
412
root -2.53016 17.6782 -0.612346 26.7802 63.6138 12.6423
lowerback 12.4529 1.997 -0.594001
upperback 7.77418 2.99945 7.37557
thorax 0.786824 1.48277 7.78277
lowerneck -10.6968 -9.55397 -10.9315
upperneck 31.762 -11.634 4.3045
head 13.4345 -5.55442 1.85405
rclavicle 5.08889e-014 -1.90833e-014
rhumerus 15.626 -11.8727 -88.6917
rradius 36.8854
rwrist -10.3557
rhand -32.9505 -22.2458
rfingers 7.12502
rthumb -6.1664 -52.136
lclavicle 5.08889e-014 -1.90833e-014
lhumerus -10.0651 -45.6358 93.3804
lradius 69.2655
lwrist 66.1189
lhand -21.6146 39.8492
lfingers 7.12502
lthumb 4.7809 69.7752
rfemur -32.5145 -10.2238 11.3
rtibia 39.7242
rfoot -20.3239 -7.0429
rtoes -1.02714
lfemur -32.6694 -2.92946 -22.6374
ltibia 26.7235
lfoot -6.83229 -1.75829
ltoes -6.86656
413
root -2.56086 17.6813 -0.578142 26.752 63.6522 12.8809
lowerback 12.5427 2.1145 -0.323925
upperback 7.93472 3.19374 7.58225
thorax 0.884698 1.58674 7.82935
lowerneck -10.8174 -9.79363 -11.0601
upperneck 31.8179 -11.849 4.05516
head 13.4997 -5.68482 1.73407
rclavicle 2.54444e-014 1.90833e-014
rhumerus 15.7501 -9.94814 -89.1321
rradius 36.6716
rwrist -10.7017
rhand -31.1972 -21.9137
rfingers 7.12502
rthumb -4.47357 -51.8464
lclavicle 2.54444e-014 1.90833e-014
lhumerus -11.2009 -44.0047 93.6638
lradius 68.7468
lwrist 67.4706
lhand -22.4398 39.1482
lfingers 7.12502
lthumb 3.98411 69.0907
rfemur -32.3657 -10.2298 11.3486
rtibia 39.9084
rfoot -20.5055 -6.97554
rtoes 0.253633
lfemur -32.2901 -2.54749 -22.7572
ltibia 26.3415
lfoot -6.72313 -1.85821
ltoes -7.55542
414
root -2.59192 17.6819 -0.545767 27.2489 63.7496 13.5012
lowerback 12.4698 2.00974 -0.328366
upperback 7.84755 3.07029 7.89306
thorax 0.835392 1.52448 8.18981
lowerneck -10.2908 -9.78273 -11.6534
upperneck 31.7932 -11.6674 3.87564
head 13.4004 -5.69946 1.81403
rclavicle -2.8625e-014 -1.27222e-014
rhumerus 15.4598 -7.279 -89.3793
rradius 36.2866
rwrist -10.9205
rhand -29.1726 -21.2994
rfingers 7.12502
rthumb -2.5184 -51.2643
lclavicle -2.8625e-014 -1.27222e-014
lhumerus -12.9297 -41.6137 94.3474
lradius 68.26
lwrist 68.567
lhand -23.1955 38.6416
lfingers 7.12502
lthumb 3.25431 68.5965
rfemur -32.4202 -10.3336 11.2611
rtibia 40.1189
rfoot -20.5611 -6.97331
rtoes 1.72486
lfemur -32.1198 -2.5457 -22.9162
ltibia 25.9722
lfoot -6.48195 -1.66647
ltoes -7.23865
415
root -2.6233 17.6844 -0.497807 27.9178 63.6149 14.158
lowerback 12.2854 3.11113 0.274965
upperback 7.82099 4.54027 7.342
thorax 0.772573 2.28386 7.04631
lowerneck -10.1814 -10.8602 -9.54844
upperneck 31.6705 -13.6901 3.87917
head 13.3126 -6.32434 1.15532
rclavicle -1.59028e-015 -1.90833e-014
rhumerus 15.6018 -8.72498 -90.1757
rradius 36.0642
rwrist -10.802
rhand -27.0985 -20.7429
rfingers 7.12502
rthumb -0.51518 -50.722
lclavicle -1.59028e-015 -1.90833e-014
lhumerus -13.7127 -43.5715 93.7137
lradius 67.9661
lwrist 70.2716
lhand -23.8977 38.6165
lfingers 7.12502
lthumb 2.57617 68.5807
rfemur -32.6322 -10.1909 11.0996
rtibia 40.337
rfoot -20.6872 -6.97541
rtoes 1.75715
lfemur -32.0588 -2.21679 -23.1915
ltibia 25.6724
lfoot -6.30877 -1.65985
ltoes -7.21465
416
root -2.65433 17.6736 -0.47173 28.9034 63.7511 15.1971
lowerback 12.2616 4.04116 1.19423
upperback 7.84113 5.8185 6.70084
thorax 0.799574 2.95421 5.67021
lowerneck -10.4936 -12.0023 -7.3502
upperneck 31.545 -15.7761 3.82414
head 13.2569 -6.97211 0.438968
rclavicle -3.18055e-014 -3.18055e-014
rhumerus 16.0293 -9.92345 -90.8884
rradius 35.8638
rwrist -10.677
rhand -25.2215 -20.1999
rfingers 7.12502
rthumb 1.29766 -50.1757
lclavicle -3.18055e-014 -3.18055e-014
lhumerus -13.9267 -45.4761 92.6842
lradius 67.7406
lwrist 72.6276
lhand -25.2727 39.0191
lfingers 7.12502
lthumb 1.24819 68.9952
rfemur -32.8415 -10.448 10.8025
rtibia 40.5926
rfoot -20.6845 -6.6821
rtoes 2.65675
lfemur -32.0862 -2.17513 -23.5895
ltibia 25.4277
lfoot -6.02889 -1.7951
ltoes -8.35635
417
root -2.68401 17.6658 -0.44084 29.4438 63.8401 15.8745
lowerback 12.1042 3.79405 1.15849
upperback 7.89607 5.50054 7.08929
thorax 0.933206 2.79212 6.16072
lowerneck -10.1369 -11.92 -8.43532
upperneck 31.4942 -15.3926 3.74518
head 13.2398 -6.94433 0.656492
rclavicle 7.95139e-015 -2.8625e-014
rhumerus 15.9174 -6.37411 -90.8261
rradius 35.474
rwrist -10.7634
rhand -23.4197 -19.5394
rfingers 7.12502
rthumb 3.03778 -49.4975
lclavicle 7.95139e-015 -2.8625e-014
lhumerus -15.2228 -42.5716 92.988
lradius 67.6608
lwrist 75.0144
lhand -27.8128 40.1145
lfingers 7.12502
lthumb -1.20507 70.0908
rfemur -32.8996 -10.5295 10.6147
rtibia 40.8077
rfoot -20.7217 -6.41012
rtoes 4.30753
lfemur -31.977 -2.20052 -23.7742
ltibia 25.2278
lfoot -5.76687 -1.75107
ltoes -9.56879
418
root -2.71207 17.6602 -0.404578 29.6533 63.8693 16.2211
lowerback 12.1089 3.95831 1.43744
upperback 7.8379 5.74949 7.20288
thorax 0.859303 2.92538 6.08895
lowerneck -9.83355 -12.1516 -8.44052
upperneck 31.5695 -15.683 3.6201
head 13.2188 -7.08191 0.581481
rclavicle -8.26944e-014 -5.08889e-014
rhumerus 15.6288 -4.38714 -91.0846
rradius 35.2276
rwrist -10.2139
rhand -21.4443 -19.1639
rfingers 7.12502
rthumb 4.94537 -49.0862
lclavicle -8.26944e-014 -5.08889e-014
lhumerus -16.432 -41.1519 92.9323
lradius 67.5857
lwrist 77.1951
lhand -29.9009 41.061
lfingers 7.12502
lthumb -3.22171 71.0165
rfemur -32.9011 -10.4023 10.5453
rtibia 41.0064
rfoot -20.7 -6.30163
rtoes 4.61546
lfemur -31.8154 -2.33615 -23.761
ltibia 25.0945
lfoot -5.6611 -1.40736
ltoes -11.1094
